<?xml version="1.0" encoding="UTF-8"?>
<!DOCTYPE svg PUBLIC "-//W3C//DTD SVG 1.1//EN" "http://www.w3.org/Graphics/SVG/1.1/DTD/svg11.dtd">
<!-- Creator: CorelDRAW 2020 (64-Bit) -->
<svg xmlns="http://www.w3.org/2000/svg" xml:space="preserve" width="2717px" height="2717px" version="1.1" style="shape-rendering:geometricPrecision; text-rendering:geometricPrecision; image-rendering:optimizeQuality; fill-rule:evenodd; clip-rule:evenodd"
viewBox="0 0 2717 2717"
 xmlns:xlink="http://www.w3.org/1999/xlink"
 xmlns:xodm="http://www.corel.com/coreldraw/odm/2003">
 <defs>
  <style type="text/css">
   <![CDATA[
    .fil0 {fill:#CC352C}
   ]]>
  </style>
 </defs>
 <g id="Слой_x0020_1">
  <metadata id="CorelCorpID_0Corel-Layer"/>
  <path id="Path_x0020_0" class="fil0" d="M1378.48 43.44c13.65,-0.14 23.14,1.04 33.74,4.2 8.12,2.45 21.75,7.89 30.28,12.11 8.55,4.21 22.78,13.47 31.64,20.58 8.86,7.1 25.6,22.77 37.2,34.82 11.6,12.04 27.81,30.91 36.02,41.92 8.2,11.01 20.48,29.04 27.22,40.05 6.77,11 20.71,37.11 31,57.99 10.27,20.88 24.49,52.66 31.62,70.65 7.1,17.98 17.54,46.45 23.21,63.26 5.66,16.81 14.94,46.71 20.63,66.43 5.67,19.72 13.79,49.62 18.01,66.43 4.22,16.81 11.83,49.56 16.91,72.75 5.08,23.2 13.58,65.9 18.85,94.9 5.28,29 9.58,54.39 9.58,56.41 -0.02,2.03 0.93,4.18 2.09,4.75 1.16,0.57 22.75,-6.43 47.97,-15.59 25.22,-9.17 60.1,-21.42 77.5,-27.24 17.4,-5.82 47.77,-15.48 67.49,-21.45 19.71,-5.99 57.67,-16.45 84.35,-23.24 26.68,-6.79 65.59,-15.77 86.46,-19.93 20.88,-4.15 54.09,-9.93 73.81,-12.82 19.72,-2.91 53.42,-6.28 74.87,-7.51 21.44,-1.22 54.19,-1.62 72.75,-0.86 18.56,0.74 42.28,2.74 52.72,4.45 10.44,1.73 28.01,5.46 39.02,8.33 11,2.87 29.52,9.93 41.12,15.67 14.85,7.34 26.21,14.99 38.36,25.79 9.51,8.43 22.73,21.53 29.38,29.06 6.66,7.53 14.74,19.4 17.98,26.36 3.25,6.96 7.79,20.25 10.08,29.52 3.74,15.02 3.97,19.79 2.2,43.24 -1.1,14.48 -3.38,32.05 -5.04,39.01 -1.69,6.96 -6.08,21.19 -9.75,31.63 -3.69,10.44 -11.15,28.47 -16.59,40.07 -5.44,11.6 -15.46,30.58 -22.23,42.18 -6.79,11.6 -20.71,33.42 -30.94,48.5 -10.22,15.08 -28.44,39.75 -40.49,54.83 -12.04,15.08 -34.12,41.15 -49.09,57.93 -14.95,16.77 -44.31,47.62 -65.21,68.54 -20.89,20.9 -53.16,51.81 -71.7,68.69 -18.53,16.85 -43.65,39.22 -55.84,49.68 -12.17,10.48 -37.09,31.09 -55.36,45.81 -18.26,14.69 -33.23,27.45 -33.25,28.32 -0.02,0.86 16.34,15.48 36.37,32.45 20.04,17 48.76,42.05 63.84,55.7 15.08,13.66 43.06,39.75 62.21,58.01 19.15,18.24 51.1,50.59 71.01,71.89 19.9,21.28 46.37,50.55 58.79,65.06 12.44,14.49 33.97,41.54 47.85,60.1 13.9,18.56 32.92,46.08 42.24,61.16 9.34,15.08 22.46,38.32 29.17,51.66 6.68,13.35 15.6,33.26 19.82,44.29 4.22,11.03 10.08,29.04 13.05,40.07 4.71,17.38 5.42,24.38 5.49,52.72 0.04,28.43 -0.57,34.48 -4.66,46.4 -2.6,7.55 -7.13,17.96 -10.11,23.19 -2.97,5.23 -9.3,14.6 -14.06,20.84 -4.79,6.22 -14.38,15.58 -21.34,20.79 -6.96,5.21 -18.82,12.57 -26.36,16.37 -7.55,3.77 -21.79,9.42 -31.64,12.52 -9.85,3.12 -28.83,7.53 -42.18,9.81 -19.78,3.37 -34.16,4.15 -78.02,4.13 -41.65,0 -61.39,-0.97 -87.52,-4.3 -18.56,-2.36 -47.49,-6.71 -64.32,-9.68 -16.83,-2.95 -43.4,-8.2 -59.05,-11.68 -15.65,-3.46 -39.86,-9.18 -53.77,-12.68 -13.92,-3.52 -42.88,-11.49 -64.32,-17.73 -21.45,-6.24 -54.67,-16.51 -73.81,-22.84 -19.15,-6.33 -49.52,-16.85 -67.49,-23.37 -17.96,-6.53 -49.98,-18.72 -71.13,-27.07 -21.13,-8.38 -38.93,-14.72 -39.52,-14.15 -0.61,0.56 -4.95,25.26 -9.66,54.83 -4.72,29.56 -13.7,79.39 -19.97,110.71 -6.28,31.32 -17.06,79.25 -23.98,106.5 -6.89,27.24 -17.46,65.69 -23.47,85.41 -5.98,19.71 -16.09,50.08 -22.41,67.48 -6.33,17.4 -16.3,43.02 -22.15,56.94 -5.84,13.92 -18.34,40.49 -27.81,59.05 -9.45,18.55 -25.37,46.07 -35.37,61.15 -10.02,15.08 -25.2,35.18 -33.76,44.65 -8.56,9.49 -21.72,22.6 -29.27,29.14 -7.55,6.56 -18.94,15.12 -25.31,19.02 -6.37,3.9 -17.75,9.45 -25.3,12.32 -7.55,2.87 -20.12,6.7 -27.95,8.56 -7.82,1.84 -17.56,3.35 -21.61,3.35 -4.05,0 -16.64,-2.4 -27.94,-5.35 -11.58,-3.02 -27.46,-9.11 -36.38,-13.96 -8.71,-4.73 -20.08,-11.88 -25.31,-15.88 -5.23,-4.01 -16.13,-13.2 -24.25,-20.48 -8.12,-7.25 -23.53,-23.32 -34.27,-35.7 -10.73,-12.38 -26,-32.23 -33.93,-44.12 -7.95,-11.89 -20.73,-33 -28.41,-46.92 -7.65,-13.92 -20.49,-40.01 -28.49,-58 -7.99,-17.98 -19.8,-46.92 -26.23,-64.31 -6.43,-17.4 -16.11,-45.41 -21.49,-62.22 -5.4,-16.8 -14.89,-49.09 -21.09,-71.7 -6.2,-22.6 -16.05,-62.48 -21.87,-88.57 -5.84,-26.11 -13.49,-63.1 -17.03,-82.24 -3.55,-19.15 -8.84,-49.04 -11.77,-66.43 -2.93,-17.4 -6.03,-32.25 -6.9,-33.01 -0.86,-0.73 -18.66,5.23 -39.54,13.27 -20.88,8.03 -65.94,24.02 -100.17,35.49 -34.23,11.49 -78.83,25.62 -99.12,31.42 -20.3,5.8 -48.29,13.39 -62.21,16.87 -13.92,3.48 -40.97,9.66 -60.1,13.73 -19.13,4.07 -46.67,9.32 -61.16,11.66 -14.5,2.34 -38.69,5.78 -53.77,7.66 -18.56,2.28 -45.47,3.41 -83.3,3.52 -42.81,0.1 -60.33,-0.68 -74.86,-3.29 -10.44,-1.88 -26.58,-5.4 -35.85,-7.82 -9.28,-2.43 -24,-7.41 -32.69,-11.05 -8.71,-3.63 -21.51,-10.42 -28.47,-15.08 -6.96,-4.66 -22.19,-17.97 -33.85,-29.59 -16.68,-16.62 -23.05,-24.74 -29.88,-38 -4.77,-9.28 -10.14,-22.57 -11.98,-29.53 -2.13,-8.18 -3.31,-21.97 -3.33,-39.01 -0.02,-21.02 1.03,-30.73 5.23,-47.98 2.91,-11.89 8.5,-29.92 12.44,-40.07 3.97,-10.14 9.74,-24.14 12.87,-31.1 3.1,-6.96 10.94,-22.14 17.42,-33.74 6.47,-11.6 17.88,-30.58 25.36,-42.18 7.47,-11.6 24.26,-35.32 37.31,-52.72 13.05,-17.4 35.89,-45.87 50.78,-63.27 14.87,-17.39 52.7,-57.31 84.1,-88.71 31.38,-31.38 73.2,-71.24 92.92,-88.58 19.72,-17.31 54.66,-47.15 77.67,-66.28 39.58,-32.96 41.61,-34.98 37.96,-38.23 -2.13,-1.88 -23.79,-19.99 -48.15,-40.28 -24.36,-20.27 -50.93,-42.81 -59.05,-50.11 -8.11,-7.29 -36.39,-33.76 -62.86,-58.83 -26.45,-25.08 -63.6,-62.19 -82.56,-82.48 -18.96,-20.31 -41.4,-44.96 -49.85,-54.83 -8.46,-9.87 -22.57,-26.93 -31.34,-37.96 -8.8,-11.03 -22.76,-29.52 -31.04,-41.12 -8.27,-11.6 -21.96,-32.48 -30.39,-46.4 -8.44,-13.92 -20.8,-36.69 -27.48,-50.61 -6.67,-13.92 -15.56,-35.28 -19.74,-47.45 -4.2,-12.17 -9.24,-30.68 -11.2,-41.12 -2.11,-11.18 -3.29,-25.92 -2.89,-35.85 0.38,-9.28 2.55,-24 4.81,-32.69 2.28,-8.71 7.17,-21.93 10.9,-29.38 3.91,-7.82 13.04,-20.22 21.54,-29.25 8.14,-8.64 21.38,-19.73 29.52,-24.73 8.12,-4.98 20.46,-11.41 27.41,-14.28 6.96,-2.89 19.76,-7.19 28.48,-9.57 8.68,-2.41 23.87,-5.8 33.74,-7.6 9.87,-1.77 32.39,-4.19 50.08,-5.37 21.72,-1.44 44.33,-1.44 69.59,0 20.59,1.18 48.82,3.6 62.74,5.37 13.92,1.78 36.7,5.13 50.62,7.45 13.91,2.34 40.97,7.57 60.1,11.64 19.12,4.07 49.51,11.22 67.48,15.9 17.97,4.66 52.62,14.53 76.97,21.89 24.36,7.38 59.47,18.6 78.03,24.91 18.56,6.32 56.98,20.16 85.41,30.74 28.43,10.59 51.88,18.98 52.11,18.67 0.25,-0.32 4.7,-25.73 9.91,-56.46 5.21,-30.72 12.89,-72.96 17.08,-93.84 4.2,-20.88 13.18,-60.74 19.95,-88.57 6.77,-27.84 16.3,-64.39 21.15,-81.19 4.85,-16.81 13.56,-44.82 19.38,-62.22 5.8,-17.39 17.28,-48.71 25.48,-69.59 8.2,-20.88 23.7,-55.52 34.44,-76.97 10.71,-21.47 27.98,-51.84 38.38,-67.48 10.37,-15.67 25.94,-36.55 34.58,-46.4 8.67,-9.87 20.88,-22.27 27.17,-27.56 6.28,-5.29 15.68,-12.53 20.92,-16.05 5.22,-3.54 13.74,-8.6 18.98,-11.26 5.22,-2.66 16.59,-7.44 25.3,-10.61 12.53,-4.55 19.76,-5.78 34.8,-5.95l-0.01 0zm-24.25 87.06c-6.37,3.18 -16.72,9.74 -22.99,14.59 -6.26,4.83 -18.01,15.9 -26.11,24.61 -8.11,8.69 -22.29,27.21 -31.5,41.12 -9.22,13.92 -24.19,40.49 -33.28,59.05 -9.09,18.56 -20.98,45.13 -26.47,59.05 -5.48,13.92 -15.07,40.49 -21.34,59.05 -6.24,18.55 -15.22,47.02 -19.93,63.26 -4.72,16.24 -13.64,50.4 -19.84,75.92 -6.2,25.52 -14.61,62.99 -18.68,83.3 -4.09,20.29 -9.35,47.83 -11.71,61.16 -2.36,13.32 -7.15,42.51 -10.65,64.84 -3.48,22.34 -6.39,42.26 -6.43,44.29 -0.04,2.8 11.26,8.73 46.92,24.57 25.86,11.47 72.15,32.47 102.89,46.62 30.75,14.18 72.25,33.96 92.27,43.97l36.37 18.22c67.82,-33.02 107.91,-51.87 132.86,-63.22 24.95,-11.32 70.96,-31.65 102.28,-45.17 31.32,-13.52 58.19,-25.26 59.68,-26.11 2.24,-1.22 1.92,-7.53 -1.66,-33.15 -2.45,-17.4 -6.82,-46.35 -9.75,-64.32 -2.93,-17.97 -8.14,-47.87 -11.6,-66.43 -3.48,-18.56 -11.09,-55.1 -16.95,-81.19 -5.86,-26.11 -15.21,-64.07 -20.75,-84.35 -5.57,-20.31 -15.06,-52.09 -21.11,-70.65 -6.06,-18.56 -16.22,-47.03 -22.61,-63.27 -6.37,-16.23 -19,-44.7 -28.05,-63.26 -9.04,-18.56 -24.35,-45.59 -34.03,-60.08 -9.68,-14.49 -22.82,-31.57 -29.19,-37.96 -6.37,-6.39 -17.25,-14.95 -24.19,-19 -6.92,-4.07 -18.77,-9.49 -26.36,-12.06 -9.93,-3.4 -18.45,-4.67 -30.64,-4.56 -9.28,0.06 -21.13,1.31 -26.36,2.74 -5.23,1.44 -14.72,5.21 -21.09,8.42l0 0zm843.54 564.28c-14.51,2.45 -43.93,8.21 -65.38,12.8 -21.44,4.6 -55.14,12.66 -74.86,17.95 -19.72,5.27 -45.34,12.44 -56.94,15.92 -11.6,3.48 -40.07,12.57 -63.26,20.18 -23.2,7.62 -57.36,19.32 -75.92,26.03 -18.56,6.7 -47.49,17.52 -64.32,24.04 -16.83,6.52 -32.86,13.48 -35.64,15.48 -4.28,3.08 -4.85,4.79 -3.69,11.03 0.76,4.07 3.73,25.41 6.6,47.45 2.87,22.03 7.15,59.04 9.49,82.24 2.34,23.2 5.67,64.01 7.4,90.68 1.75,26.68 3.18,56.58 3.21,66.43 0.02,9.85 0.52,19.83 1.13,22.14 0.64,2.45 10.15,10 22.57,17.93 11.81,7.55 41.9,27.84 66.87,45.13 24.99,17.27 55.86,39.06 68.62,48.44 12.76,9.36 39.1,29.14 58.52,43.97l35.33 26.95c28.59,-21.89 49.24,-38.25 64.32,-50.48 15.07,-12.24 47.34,-39.29 71.7,-60.13 24.35,-20.83 70.22,-63.54 101.94,-94.92 31.72,-31.36 65.88,-66.36 75.92,-77.79 10.04,-11.43 27.12,-31.85 37.94,-45.34 10.81,-13.52 29.18,-38.81 40.82,-56.2 11.64,-17.4 27.16,-43.97 34.48,-59.05 7.3,-15.08 15.82,-35.47 18.9,-45.34 3.1,-9.87 6.64,-26.93 7.91,-37.96 1.58,-13.9 1.6,-24.23 0.1,-33.74 -1.18,-7.53 -4.66,-19.4 -7.72,-26.36 -3.05,-6.96 -9.11,-16.14 -13.47,-20.39 -4.35,-4.24 -13.6,-10.57 -20.56,-14.03 -6.96,-3.46 -17.4,-7.91 -23.2,-9.85 -5.8,-1.96 -18.62,-5.44 -28.47,-7.76 -14.78,-3.46 -27.33,-4.32 -71.7,-4.97 -37.18,-0.53 -61.26,0.12 -78.03,2.15 -13.35,1.6 -36.12,4.91 -50.61,7.38l0 -0.01zm-1800.96 3.27c-6.39,1.79 -16.83,5.32 -23.2,7.81 -6.39,2.51 -16.34,7.27 -22.14,10.62 -5.8,3.36 -15.14,10.53 -20.75,15.95 -5.61,5.4 -12.82,13.62 -16.03,18.26 -3.2,4.64 -7.76,13.67 -10.12,20.03 -2.34,6.37 -4.91,18.24 -5.71,26.37 -0.81,8.11 -0.43,22.81 0.86,32.68 1.27,9.87 5.19,26.47 8.71,36.91 3.52,10.43 12.44,31.31 19.82,46.39 7.41,15.08 21.68,39.75 31.76,54.83 10.06,15.08 26.03,37.28 35.45,49.33 9.45,12.06 26.62,32.94 38.15,46.39 11.56,13.48 40.03,43.49 63.27,66.71 23.26,23.21 55.33,53.81 71.28,68.01 15.94,14.19 46.31,40.17 67.48,57.74 21.17,17.56 50.59,41.29 65.37,52.72l26.89 20.77c123.39,-89.31 175.82,-126.62 196.12,-140.51 20.29,-13.92 44.27,-29.97 53.25,-35.71 8.97,-5.73 16.77,-11.83 17.29,-13.58 0.53,-1.75 2.47,-27.83 4.29,-57.99 1.83,-30.16 4.74,-72.38 6.47,-93.84 1.73,-21.47 4.62,-51.82 6.39,-67.49 1.79,-15.67 5.57,-44.6 8.39,-64.32 2.83,-19.72 4.43,-36.52 3.57,-37.35 -0.87,-0.84 -15.82,-6.81 -33.22,-13.3 -17.4,-6.48 -59.62,-21.18 -93.84,-32.65 -34.23,-11.49 -78.83,-25.6 -99.12,-31.38 -20.31,-5.8 -50.65,-13.98 -67.48,-18.22 -16.83,-4.22 -46.25,-10.88 -65.38,-14.76 -19.12,-3.9 -48.54,-9.05 -65.37,-11.45 -16.83,-2.38 -41.97,-5.27 -55.88,-6.41 -13.92,-1.14 -40.98,-1.99 -60.11,-1.88 -19.12,0.11 -43.82,1.52 -54.83,3.12 -11.03,1.63 -25.26,4.41 -31.63,6.2l0 0zm691.81 209.75c-2.34,19.15 -6.14,56.16 -8.46,82.24 -2.3,26.11 -5.04,58.38 -6.09,71.7 -1.08,13.35 -1.58,24.74 -1.18,25.31 0.42,0.57 38.51,-21.66 84.63,-49.41 46.14,-27.77 100.48,-58.75 120.79,-68.85l36.91 -18.39c-31.07,-15.63 -54.79,-27.44 -72.76,-36.32 -17.99,-8.9 -43.59,-20.98 -56.94,-26.88 -13.35,-5.91 -38.49,-16.52 -55.88,-23.58 -17.4,-7.07 -31.83,-12.82 -32.04,-12.8 -0.21,0.02 -1.37,5.02 -2.57,11.11 -1.18,6.1 -4.07,26.74 -6.41,45.87l0 0zm448.93 21.13c-34.29,16.7 -62.52,31.13 -62.74,32.03 -0.21,0.93 9.35,6.56 21.24,12.55 11.89,5.99 44.86,24.17 73.28,40.41 28.43,16.21 64.49,37.58 80.14,47.42 15.65,9.87 35.83,23.01 44.81,29.21l16.35 11.26c-0.02,-18.79 -1.44,-46.54 -3.15,-73.81 -1.7,-27.24 -4.07,-59.53 -5.25,-71.7 -1.16,-12.16 -4.11,-37.79 -6.56,-56.94 -2.44,-19.12 -5.14,-36.39 -5.96,-38.38 -1.31,-3.1 -7.34,-0.86 -45.66,16.98 -24.27,11.32 -72.21,34.25 -106.5,50.97l0 0zm-181.42 93.36c-25.98,13.16 -67.17,35.17 -91.53,48.9 -24.35,13.75 -63.26,36.34 -86.46,50.21 -23.2,13.88 -57.28,34.84 -75.71,46.59 -18.45,11.74 -34.24,23.24 -35.13,25.56 -0.86,2.32 -2.59,22.71 -3.86,45.34 -1.27,22.63 -2.66,69.11 -3.12,103.33 -0.44,34.23 -0.09,87.35 0.82,118.1 0.91,30.74 2.7,65.86 4.01,78.03 1.29,12.16 2.8,24.27 3.37,26.88 0.68,3.19 7.81,9.16 21.58,18.1 11.3,7.34 42.87,26.63 70.12,42.85 27.24,16.24 58.09,34.33 68.53,40.21 10.44,5.89 44.12,24.43 74.87,41.19 30.74,16.79 60.86,33.02 66.95,36.08l11.08 5.57c100.5,-54.35 148.67,-81.04 171.87,-94.39 23.19,-13.35 56.89,-33.3 74.86,-44.37 17.97,-11.07 43.59,-27.4 56.94,-36.32 13.35,-8.9 25.35,-17.52 26.7,-19.15 1.45,-1.75 2.84,-13.72 3.39,-29.31 0.51,-14.49 2.17,-68.11 3.67,-119.15 2.15,-72.54 2.22,-106.37 0.32,-155 -1.33,-34.23 -3.14,-64.78 -4.01,-67.95 -1.31,-4.66 -11.01,-11.47 -52.21,-36.65 -27.84,-17 -69.11,-41.59 -91.74,-54.62 -22.63,-13.05 -64.85,-36.78 -93.84,-52.74 -29,-15.96 -57.55,-31.76 -63.48,-35.11l-10.75 -6.12 -47.24 23.94zm439.99 479.68c0.63,1.69 10.58,-3.9 27.86,-15.67 14.78,-10.06 44.45,-30.62 65.9,-45.68 21.46,-15.08 51.83,-37.09 67.48,-48.92 15.67,-11.83 29.63,-22.84 31.06,-24.43 2.11,-2.38 -3.71,-7.63 -32.68,-29.48 -19.4,-14.61 -45.72,-34.14 -58.48,-43.4 -12.76,-9.25 -39.33,-27.77 -59.05,-41.14 -19.72,-13.37 -37.75,-25.31 -40.07,-26.51 -4.19,-2.19 -4.22,-1.62 -3.6,135.2 0.33,75.56 1.05,138.57 1.58,140.03l0 0zm-910.06 -194.63c-15.64,11.5 -43.42,32.12 -61.68,45.83 -18.26,13.7 -33.17,25.62 -33.15,26.48 0.04,0.87 2.17,3.1 4.74,4.96 2.58,1.86 23.67,17 46.86,33.66 23.2,16.64 65.19,45.72 93.32,64.63 28.13,18.9 51.37,33.64 51.66,32.78 0.3,-0.87 0.28,-63.5 -0.04,-139.19 -0.31,-75.68 -1.33,-137.6 -2.28,-137.6 -0.92,0 -17.27,10.69 -36.33,23.77 -19.04,13.05 -47.43,33.17 -63.1,44.68l0 0zm-229.78 181.45c-17.9,15.08 -47.32,40.63 -65.35,56.79 -18.03,16.17 -54.7,51.28 -81.46,78.03 -26.79,26.76 -57.05,58.14 -67.26,69.74 -10.2,11.59 -27.26,32.01 -37.91,45.34 -10.65,13.34 -26.05,33.74 -34.19,45.33 -8.16,11.6 -19.91,29.63 -26.13,40.07 -6.2,10.44 -15.73,28.47 -21.17,40.07 -5.44,11.6 -12.44,29.17 -15.54,39.02 -3.1,9.87 -6.58,26 -7.7,35.85 -1.31,11.34 -1.33,23.72 -0.08,33.74 1.09,8.71 4.17,21.51 6.85,28.47 2.7,6.96 8.25,16.13 12.36,20.39 4.11,4.24 15.54,11.6 25.39,16.34 10.84,5.19 27.1,10.67 41.12,13.84 16.41,3.71 32.77,5.63 55.89,6.56 17.99,0.73 48.35,0.29 67.48,-0.97 19.15,-1.29 47.62,-4.24 63.27,-6.6 15.67,-2.37 45.08,-7.66 65.37,-11.75 20.31,-4.07 50.19,-10.78 66.43,-14.87 16.24,-4.09 47.09,-12.55 68.54,-18.77 21.47,-6.2 54.68,-16.49 73.81,-22.86 19.15,-6.34 52.36,-17.88 73.81,-25.64 21.47,-7.74 53.48,-19.68 71.17,-26.53 17.69,-6.83 32.5,-13.16 32.92,-14.02 0.42,-0.87 -1.9,-21.03 -5.17,-44.82 -3.27,-23.76 -7.88,-62.21 -10.25,-85.41 -2.36,-23.19 -5.69,-63.05 -7.38,-88.57 -1.68,-25.51 -3.5,-60.65 -4.02,-78.09l-0.95 -31.71c-37.08,-22.51 -66.83,-41.57 -90.03,-56.88 -23.2,-15.31 -58.31,-39.6 -78.03,-53.96 -19.72,-14.37 -45.57,-33.94 -57.47,-43.49 -11.89,-9.57 -22.39,-17.4 -23.34,-17.4 -0.93,0 -14.47,10.21 -30.07,22.67 -15.61,12.47 -43.02,35.01 -60.91,50.09l0 0zm1286.32 11.62c-21.45,15.39 -65.1,45.27 -97.01,66.4 -41.16,27.29 -58.43,39.9 -59.55,43.47 -0.84,2.78 -1.56,14.06 -1.56,25.07 -0.02,11.03 -1.48,41.86 -3.23,68.54 -1.75,26.68 -4.13,58.94 -5.31,71.7 -1.18,12.76 -3.61,36.02 -5.38,51.67 -1.77,15.67 -5.08,41.04 -7.34,56.41 -2.24,15.37 -4.09,29.84 -4.09,32.16 0,3.54 7.1,6.98 43.76,21.3 24.06,9.38 58.94,22.54 77.5,29.25 18.55,6.71 52.72,18.43 75.92,26.09 23.19,7.63 56.89,18.11 74.86,23.28 17.99,5.16 42.18,11.79 53.78,14.7 11.59,2.93 36.75,8.66 55.88,12.75 19.15,4.09 50.93,10.04 70.65,13.21 32.77,5.25 41.01,5.75 95.95,5.86 56.12,0.12 61.37,-0.19 79.08,-4.75 10.44,-2.68 25.62,-7.44 33.74,-10.58 8.12,-3.15 21.18,-10.21 29,-15.69 7.95,-5.57 18.24,-15.33 23.28,-22.1 5,-6.67 11.39,-18.77 14.23,-26.89 4.58,-12.99 5.17,-18.03 4.92,-42.18 -0.23,-23.15 -1.16,-30.37 -5.97,-46.39 -3.12,-10.44 -10.14,-28.94 -15.56,-41.13 -5.44,-12.16 -16.43,-33.04 -24.4,-46.39 -7.97,-13.33 -20.2,-32.31 -27.14,-42.18 -6.96,-9.85 -19.4,-26.46 -27.65,-36.88 -8.25,-10.44 -24.95,-30.37 -37.09,-44.29 -12.17,-13.94 -38.74,-41.96 -59.05,-62.31 -20.33,-20.35 -52.13,-50.64 -70.69,-67.3 -18.56,-16.66 -49.87,-43.74 -69.59,-60.16 -19.72,-16.45 -49.37,-40.49 -65.9,-53.46 -16.54,-12.95 -30.83,-23.56 -31.8,-23.56 -0.95,0 -18.27,12.7 -38.49,28.22 -20.2,15.5 -54.28,40.78 -75.75,56.16l0 0zm-863.55 270.96c1.75,19.72 5.08,51.52 7.4,70.65 2.32,19.15 4.68,36.92 5.25,39.54 0.86,3.94 2.02,4.53 6.83,3.5 3.19,-0.7 22.42,-8.33 42.71,-16.98 20.3,-8.66 67.04,-30.64 103.88,-48.84 36.84,-18.2 66.98,-33.82 66.95,-34.69 0,-0.86 -10.22,-6.68 -22.69,-12.93 -12.46,-6.24 -30.72,-16.02 -40.59,-21.76 -9.85,-5.71 -39.75,-23.05 -66.43,-38.51 -26.68,-15.45 -57.99,-34.24 -69.59,-41.75 -11.6,-7.53 -24.66,-16.41 -29,-19.74 -4.34,-3.33 -8.54,-6.07 -9.3,-6.07 -0.78,0 -0.78,20.64 0,45.86 0.76,25.22 2.83,62 4.58,81.72l0 0zm569.36 -76.08c-16.23,9.65 -46.6,27.05 -67.48,38.65 -20.88,11.6 -55.5,29.86 -76.97,40.6l-39.02 19.48c26.15,13.18 55.11,27.21 81.19,39.69 26.11,12.48 64.07,29.76 84.36,38.38 20.31,8.63 40.7,16.83 45.34,18.26 4.64,1.44 8.65,2.28 8.92,1.9 0.27,-0.36 2.36,-13.47 4.66,-29.14 2.3,-15.65 5.61,-41.27 7.38,-56.94 1.75,-15.65 4.62,-43.65 6.35,-62.21 1.75,-18.56 3.75,-45.36 4.45,-59.58 0.71,-14.21 0.5,-25.77 -0.47,-25.7 -0.97,0.06 -7.93,4.36 -15.48,9.57 -7.52,5.19 -26.99,17.36 -43.23,27.04l0 0zm-330.03 171.85c-22.61,11.45 -56.77,27.94 -75.92,36.67 -19.13,8.73 -49.03,22.01 -66.43,29.52 -17.4,7.51 -40.17,17.17 -50.61,21.45 -10.44,4.26 -20.39,9.13 -22.14,10.8 -2.77,2.65 -2.81,5.56 -0.32,23.57 1.56,11.29 6.07,39.99 10.04,63.75 3.98,23.79 11.91,66.5 17.65,94.9 5.76,28.43 15.16,70.65 20.92,93.85 5.76,23.2 14.76,56.89 19.99,74.86 5.23,17.99 14.38,46.92 20.33,64.32 5.95,17.4 16.03,44.46 22.4,60.1 6.36,15.67 18.2,41.76 26.32,58 8.11,16.23 22.01,40.44 30.89,53.77 8.88,13.35 22.35,30.47 29.95,38.09 9.38,9.4 18.81,16.32 29.58,21.68 9.49,4.7 22.99,9.21 33.74,11.28 15.55,2.99 19.89,3.08 32.69,0.67 8.12,-1.53 21.89,-6.38 30.58,-10.77 8.71,-4.39 21.99,-13.06 29.52,-19.28 7.55,-6.2 19.83,-18.34 27.31,-26.99 7.47,-8.65 20.08,-25.69 28.03,-37.87 7.93,-12.17 19.99,-33.05 26.78,-46.4 6.81,-13.33 17.36,-36.1 23.43,-50.61 6.1,-14.49 16.22,-41.06 22.5,-59.05 6.29,-17.97 15.69,-47.38 20.92,-65.37 5.21,-17.97 14.07,-51.19 19.68,-73.81 5.63,-22.61 14.07,-60.57 18.77,-84.36 4.7,-23.76 11.43,-60.31 14.91,-81.19 3.5,-20.88 8.69,-54.09 11.53,-73.81 2.85,-19.72 4.9,-36.31 4.56,-36.9 -0.36,-0.57 -14.28,-6.9 -30.96,-14.03 -16.7,-7.15 -46.25,-20.2 -65.67,-28.99 -19.42,-8.82 -52.4,-24.57 -73.28,-35.01 -20.88,-10.44 -52.91,-27.16 -71.18,-37.16 -18.26,-9.99 -33.74,-18.39 -34.37,-18.62 -0.63,-0.23 -10.12,4.64 -21.09,10.86 -10.96,6.2 -38.42,20.65 -61.05,32.08l0 0zm-27.94 -682.93c13.33,-0.11 21.21,1.11 33.74,5.29 8.98,2.99 22.52,8.65 30.05,12.59 7.55,3.94 17.5,10.84 30.58,23.47l10.54 -9.17c5.8,-5.04 17.19,-12.38 25.31,-16.3 8.12,-3.93 19.5,-8.78 25.3,-10.8 5.8,-2.03 18.14,-4.11 27.42,-4.68 9.3,-0.57 22.54,0.12 29.52,1.52 6.96,1.41 17.4,4.76 23.2,7.48 5.8,2.72 15.14,9.03 20.77,14.03 6.31,5.61 12.89,14.4 17.08,22.81 3.76,7.55 8.06,19.41 9.56,26.36 1.75,8.19 2.25,19.76 1.45,32.69 -0.67,11.03 -3.62,29.53 -6.58,41.12 -2.95,11.6 -9.49,29.63 -14.55,40.07 -5.04,10.44 -15.29,28.01 -22.75,39.02 -7.47,11.03 -18.22,26.67 -23.92,34.79 -5.67,8.12 -12.76,17.63 -15.73,21.15 -2.97,3.51 -14.42,14.41 -25.43,24.26 -11.03,9.82 -26.68,23.15 -34.8,29.6 -8.12,6.46 -21.87,16.66 -46.39,33.56l-13.71 -9.81c-7.53,-5.38 -24.61,-18.54 -37.96,-29.23 -13.33,-10.67 -30.37,-25.94 -37.83,-33.93 -7.49,-7.97 -20.79,-23.51 -29.57,-34.54 -8.77,-11.01 -21.59,-28.58 -28.47,-39.02 -6.85,-10.44 -16.49,-27.52 -21.36,-37.96 -4.89,-10.43 -11.14,-27.52 -13.85,-37.96 -1.91,-8.2 -6.37,-20.31 -7.95,-48.02 -0.46,-7.96 0.62,-24.2 3.01,-32.11l7.38 -15.54c4.87,-10.25 10.97,-18.94 17.93,-25.5 5.8,-5.48 14.57,-12 19.5,-14.51 4.94,-2.51 13.94,-5.9 20.04,-7.57 6.09,-1.67 18.89,-3.1 28.47,-3.16l0 0z"/>
 </g>
</svg>
